<svg width="182" height="182" viewBox="0 0 182 182" fill="none" xmlns="http://www.w3.org/2000/svg">
<path d="M177.632 91.091C177.632 118.3 165.074 142.551 145.418 158.385C141.368 161.616 137.046 164.528 132.45 167.03C120.165 173.719 106.106 177.495 91.1365 177.495C88.6795 177.495 86.2225 177.404 83.8565 177.177C83.811 177.177 83.7655 177.177 83.72 177.177C66.066 175.675 49.959 168.85 36.946 158.385C36.673 158.158 36.4 157.93 36.127 157.703C34.3525 156.247 32.669 154.7 31.031 153.107C14.833 137.41 4.77747 115.388 4.77747 91.0455C4.77747 66.703 14.833 44.681 31.031 28.9835C46.592 13.8775 67.8405 4.59546 91.2275 4.59546C111.793 4.59546 130.63 11.7845 145.463 23.751C165.074 39.6305 177.632 63.882 177.632 91.091Z" fill="#FF6708"/>
<path d="M36.5712 156.058C36.5712 156.058 40.9675 153.512 43.1656 142.146C42.2498 140.327 39.1815 133.189 44.7684 125.279C43.532 125.188 36.9376 124.96 33.274 120.414C36.4797 121.46 42.7077 121.278 48.9357 115.777C53.6984 110.958 54.3395 106.775 54.3395 106.775C54.3395 106.775 48.9815 107.002 49.4395 112.049C47.7451 110.367 46.646 106.957 48.3404 104.729C46.9208 105.411 44.6311 106.957 44.9974 111.367C42.1582 109.048 41.3797 106.593 42.6619 101.456C41.6544 102.729 40.7385 104.047 40.4638 105.32C40.418 104.002 40.418 101.501 41.975 99.228C44.3563 95.7728 45.8217 94.3179 48.1572 92.7722C46.1423 93.2723 42.7993 93.8178 38.861 91.8629C42.7993 90.499 43.1656 89.7261 43.1656 89.7261C43.1656 89.7261 43.4862 86.3618 44.9974 83.8613C47.104 80.3606 50.1264 76.7235 50.1264 76.7235C50.1264 76.7235 49.0273 77.8147 47.0582 78.1329C43.3946 78.6785 42.0208 78.042 42.0208 78.042C42.0208 78.042 45.547 76.6781 47.3329 74.9959C48.7526 73.6775 52.6451 69.1766 52.6451 69.1766C52.6451 69.1766 44.5395 58.3562 46.2797 45.7628C48.203 31.5782 55.3928 22.5764 60.1554 19.303C61.5292 19.894 63.8647 26.6226 63.8647 26.6226C63.8647 26.6226 68.7189 37.8067 74.3517 42.2166C74.8096 41.1255 74.718 38.3977 74.718 38.3977C74.718 38.3977 76.9161 39.5343 76.3208 41.9893C77.2825 41.3528 77.5115 38.5341 77.1909 37.1247C78.6563 37.4884 79.7096 40.8982 79.0685 41.9893C79.0685 41.9893 90.4255 37.6703 102.744 42.0348C101.966 38.2158 104.805 37.0338 104.805 37.0338C104.805 37.0338 104.21 40.3072 105.309 41.8984C105.217 40.9437 106.087 38.4432 107.14 38.4432C106.774 40.1253 107.415 42.1712 107.415 42.1712C107.415 42.1712 111.125 39.4888 114.834 33.1694C117.994 27.0318 120.421 19.6212 121.428 19.3939C123.26 18.9393 146.478 41.5802 129.259 69.222C130.404 71.9498 138.006 77.5419 139.426 77.9965C136.769 79.5877 131.869 77.1782 131.869 77.1782C131.869 77.1782 138.51 84.3614 138.418 89.7261C139.838 90.9082 143.776 91.7265 143.364 91.6356C142.952 91.5447 139.7 94.0906 133.564 92.7722C135.579 93.4087 142.585 101.001 141.395 104.82C140.616 103.547 138.418 100.546 138.418 100.546C138.418 100.546 141.99 108.002 136.907 111.003C136.678 109.003 136.449 106.457 133.335 104.775C134.205 106.73 134.938 108.548 132.511 111.776C132.19 108.366 130.725 105.957 126.008 107.093C125.275 112.594 126.008 117.141 131.595 120.505C127.153 120.914 123.306 115.459 123.306 115.459C123.306 115.459 129.9 124.96 127.107 137.054C128.114 136.235 127.748 136.054 127.748 136.054L132.556 163.559C132.556 163.559 115.292 175.152 90.975 175.243C59.5143 175.38 36.5712 156.058 36.5712 156.058Z" fill="url(#paint0_linear_560_1202)"/>
<path d="M115.841 117.959C114.651 117.141 111.033 106.366 105.126 110.139C103.614 115.049 100.317 117.823 97.4779 118.641C95.4629 120.414 94.5013 122.096 90.105 121.869C87.1742 121.687 85.5714 120.687 83.6938 118.868C76.1377 117.413 76.0461 104.638 72.9321 104.093C70.5966 103.683 69.0396 104.502 66.5667 105.82C65.1012 105.82 65.0097 108.366 63.4984 108.275C59.5601 108.048 54.5227 105.366 54.1106 107.548C53.6984 110.139 44.6769 124.46 33.0909 120.141C38.8152 125.733 43.99 125.142 45.2723 124.733C43.3947 128.325 37.9452 135.508 46.1881 144.692C46.2797 143.828 45.7302 139.054 48.6153 136.326C49.0274 139.827 48.5237 140.373 53.3779 145.919C57.3162 150.42 68.3984 156.921 70.8255 158.558C69.1769 155.421 70.505 150.647 71.0087 150.647C76.3667 156.876 83.0527 162.241 88.4106 162.241C101.508 162.286 124.909 124.142 115.841 117.959Z" fill="url(#paint1_linear_560_1202)" stroke="url(#paint2_linear_560_1202)" stroke-width="0.136364" stroke-miterlimit="10"/>
<path d="M56.0797 59.3109C55.347 60.0838 54.7058 60.5384 54.8432 61.7659C54.9806 63.3117 58.0946 65.0848 56.675 65.0848C53.9731 65.0848 46.875 61.084 46.875 58.0834C46.875 55.0828 49.0273 52.6732 51.7292 52.6732C54.4311 52.6732 53.6526 57.0377 56.0797 59.3109Z" fill="#2D2D2D"/>
<path d="M61.4835 55.583C61.4835 55.583 56.1713 50.1273 56.5835 38.8069C57.0414 26.9863 59.4685 20.0759 60.3386 19.9395C61.2087 19.8031 67.4825 37.9431 74.0311 42.3076C74.1227 43.717 62.1246 52.4914 61.4835 55.583Z" fill="#1F1F1F"/>
<path d="M121.291 75.5869C121.291 75.5869 119.963 70.1768 113.323 68.9947C105.767 67.6763 103.843 70.3131 103.843 70.3131C103.843 70.3131 102.286 67.7672 106.362 63.8119C103.523 65.1758 100.684 67.358 100.226 69.9494C98.6228 71.6316 94.2266 74.0866 93.0817 73.4047C92.3032 71.9498 90.792 57.4015 90.792 57.4015V91.4992C90.792 91.4992 100.729 92.2721 104.164 99.0916C102.836 95.9546 102.928 95.9091 102.928 95.0908C102.928 94.2725 103.523 92.4539 106.271 89.5442C107.782 87.953 108.24 76.1325 111.995 72.4045C113.964 70.3131 117.765 72.359 121.291 75.5869Z" fill="#1F1F1F"/>
<path d="M119.826 54.6737C119.826 54.6737 124.405 47.0358 121.932 20.7578C123.031 21.2125 126.42 25.0314 126.42 25.0314C126.42 25.0314 123.535 18.9393 121.154 19.5758C118.772 20.2123 117.124 29.7596 114.513 33.624C111.857 37.4885 106.957 42.444 106.957 42.444C106.957 42.444 120.146 53.3098 119.826 54.6737Z" fill="#1F1F1F"/>
<path d="M60.2928 75.5869C60.2928 75.5869 61.6209 70.1768 68.2611 68.9947C75.8172 67.6763 77.7405 70.3131 77.7405 70.3131C77.7405 70.3131 79.2975 67.7672 75.2218 63.8119C78.0611 65.1758 80.9003 67.358 81.3583 69.9494C82.9611 71.6316 87.3574 74.0866 88.5022 73.4047C89.2807 71.9498 90.7919 57.4015 90.7919 57.4015V91.4992C90.7919 91.4992 80.8546 92.2721 77.42 99.0916C78.748 95.9546 78.6564 95.9091 78.6564 95.0908C78.6564 94.2725 78.0611 92.4539 75.3134 89.5442C73.8022 87.953 73.3443 76.1325 69.5891 72.4045C67.62 70.3131 63.819 72.359 60.2928 75.5869Z" fill="#1F1F1F"/>
<path d="M126.283 115.186C125.229 112.458 125.779 110.139 125.779 110.139C125.779 110.139 126.741 107.321 126.649 107.23C130.908 107.048 131.824 110.73 132.282 112.094C134.526 110.094 133.472 106.23 133.243 105.275C135.716 106.048 136.632 110.003 136.632 110.003L136.495 111.412C136.495 111.412 136.998 111.14 138.006 109.412C137.96 104.229 133.289 102.911 132.465 102.865C133.472 101.183 133.335 96.6822 133.335 96.6822C133.335 96.6822 132.74 93.5907 131.915 92.4541C136.357 94.8182 141.761 92.6359 141.761 92.6359C141.761 92.6359 143.089 92.0904 142.127 91.9994C141.67 92.0449 141.212 91.272 140.57 91.1356C137.182 90.4537 131.961 88.4078 131.961 88.4078C129.259 87.2712 127.565 85.8164 126.786 85.2253C127.702 86.9075 128.801 88.9534 129.305 92.8178C129.855 96.9095 129.442 97.1368 129.626 99.41C129.076 98.3643 127.748 96.2275 128.023 97.6824C128.298 99.1372 124.68 103.138 124.222 103.865C123.718 104.593 121.52 105.138 120.329 105.684C119.871 103.547 118.589 101.91 118.589 101.91C118.589 101.91 119.139 106.139 118.543 107.503C118.223 104.456 113.231 102.001 111.766 101.456C112.59 102.183 113.918 105.138 114.468 106.593C110.3 101.82 106.179 104.002 105.4 104.502C104.576 105.002 100.455 113.049 100.455 113.049L98.3938 108.003L90.1966 109.958V124.688C95.4171 124.824 98.1648 122.415 99.3555 120.823C99.5844 120.505 103.66 120.187 107.141 114.322C107.141 114.322 110.804 120.232 111.079 123.233C111.079 123.233 112.132 128.416 111.903 130.553C111.674 132.689 110.026 138.509 109.43 138.736C109.339 138.009 108.469 130.871 108.469 130.871C108.469 130.871 107.232 128.325 103.981 125.915C105.034 127.461 107.186 131.78 106.637 137.509C106.087 143.237 104.439 145.919 102.424 147.374C103.156 145.646 103.889 143.601 103.385 140.327C102.882 137.054 101.37 135.599 101.37 135.599C101.37 135.599 103.294 141.509 101.279 145.419C101.416 142.555 100.455 138.781 98.8059 137.645C98.2106 137.236 98.0274 137.327 98.0274 137.327C98.0274 137.327 97.7527 143.964 95.3713 146.51C96.0583 142.191 95.0508 138.554 93.8601 137.827C93.9975 140.145 93.8143 146.01 91.2041 149.011C90.5629 147.647 87.2199 143.919 87.2199 143.919C87.2199 143.919 77.8779 132.644 78.1068 127.188C77.6031 130.416 77.5115 135.144 78.1068 137.554C78.748 140.054 79.9386 143.51 79.9386 143.51L72.6115 136.599C72.6115 136.599 68.6732 131.462 68.8564 126.052C68.0321 126.688 67.2078 130.007 67.2078 130.007C67.2078 130.007 64.9181 124.824 67.2078 118.368C64.4601 119.096 62.3536 124.415 62.3536 124.415C62.3536 124.415 63.2695 115.277 64.5517 113.004C61.9414 112.685 56.2171 113.14 56.2171 113.14C56.2171 113.14 57.1788 116.277 57.1788 118.323C57.1788 120.369 56.2171 124.415 57.133 127.87C57.6825 129.916 62.4452 140.145 62.4452 140.145C62.4452 140.145 56.5377 136.417 55.3928 130.78C55.2096 132.735 54.3395 139.418 60.4302 148.238C58.5984 146.465 51.3629 140.236 51.5003 127.37C49.4395 129.052 45.6844 133.371 45.4554 134.781C45.8218 131.235 46.6461 126.006 50.5844 120.914C49.1648 122.005 37.4872 124.915 35.4264 121.233C32.8162 121.096 36.1134 125.461 44.5853 125.279C43.8526 127.37 37.9451 136.827 45.7302 144.646C46.1423 143.51 46.3713 138.1 48.2947 137.099C48.6152 138.281 48.2947 140.509 50.0807 142.919C53.9732 148.192 70.7797 158.513 70.9629 159.24C70.276 158.24 68.6274 153.694 70.505 151.329C71.6498 152.239 78.2442 159.968 79.9844 162.604C81.7246 165.241 83.648 173.698 83.648 173.698C83.648 173.698 86.8536 167.333 90.4255 165.878C89.9218 166.742 86.991 170.924 87.5405 173.061C88.319 171.834 91.9368 169.197 93.219 168.515C94.5013 167.833 104.713 162.741 109.018 153.33C109.293 154.148 108.148 160.695 106.912 162.604C108.743 161.377 117.582 155.921 120.146 150.284C122.711 144.646 124.909 136.781 123.169 131.826C123.855 132.28 126.512 135.917 126.145 138.009C126.97 136.372 129.122 124.097 122.665 115.731C123.993 117.186 128.893 121.733 131.595 120.823C131.824 120.823 127.336 117.914 126.283 115.186Z" fill="#1F1F1F"/>
<path d="M82.8695 107.912L80.8088 112.958C80.8088 112.958 76.6873 104.911 75.863 104.411C75.0387 103.911 72.7032 102.092 67.391 105.047C67.9406 103.593 68.6275 102.092 69.4518 101.365C67.9864 101.956 64.2312 104.547 63.9107 107.593C62.72 106.048 59.8807 102.183 59.8807 102.183L60.8882 105.548C60.8882 105.548 57.4994 104.456 56.9957 103.729C56.492 103.002 52.8742 99.0007 53.1948 97.5459C53.5153 96.0911 50.9508 101.138 50.8592 103.229C49.9892 102.638 48.4321 97.0003 50.5387 92.454C52.6452 87.9076 53.1948 86.4073 54.4312 85.0889C52.8284 86.9074 51.363 87.6803 49.8976 90.3627C49.8976 90.3627 42.0667 92.2267 39.0901 91.863C38.1284 91.9539 39.4564 92.4994 39.4564 92.4994C39.4564 92.4994 44.8602 94.6817 49.3022 92.3176C48.5237 93.3633 48.02 95.5455 47.8826 96.8185C47.7452 98.3188 47.7452 101.047 48.7985 102.729C47.9742 102.774 43.349 104.093 43.2574 109.276C44.2648 110.958 44.7686 111.276 44.7686 111.276L44.6312 109.867C44.6312 109.867 45.7761 105.957 48.249 105.138C48.2032 105.275 48.7527 104.456 49.2564 104.32C49.9434 104.32 50.6303 104.956 50.5845 105.366C49.8518 106.775 48.1116 110.321 48.9817 111.958C49.4396 110.594 50.3555 106.957 54.6144 107.093C54.5228 107.23 50.4471 115.004 49.4396 115.913C51.363 114.868 55.4845 110.003 55.4845 110.003L56.263 113.322L64.5518 113.049L66.7041 108.366C66.7041 108.366 68.9938 105.093 73.0237 106.048C73.0237 106.048 73.2985 106.093 73.3901 106.457C73.4817 106.866 75.2219 117.186 81.3125 119.687C81.6789 120.641 84.335 124.87 91.0667 124.688V109.867L82.8695 107.912Z" fill="#1F1F1F"/>
<path d="M134.434 85.4071C134.434 85.4071 133.198 85.1798 131.824 84.4979C131.045 84.0887 130.725 83.5886 130.541 83.6795C130.358 83.8159 130.587 84.7252 131.503 85.6344C132.373 86.4982 134.434 86.18 134.434 86.18V85.4071Z" fill="#1F1F1F"/>
<path d="M81.0377 41.4893C81.0377 41.6257 81.0377 41.6711 80.9461 41.7166C80.305 41.8985 77.6489 43.3988 77.6489 43.3988C77.6489 43.3988 77.6031 41.6257 77.5115 40.5345C77.4199 41.6711 75.4966 43.3533 75.3592 43.3078C75.4966 42.8532 74.7638 40.1254 74.7638 40.1254L74.6265 39.7162C74.6265 39.0342 74.6265 38.4887 74.6265 38.4887C74.6265 38.4887 76.8246 39.6253 76.2293 42.0803C77.191 41.4438 77.4199 38.6251 77.0994 37.2157C78.5648 37.5794 79.6181 40.9437 78.9769 42.0803C78.9311 42.1258 79.7096 41.853 81.0377 41.4893Z" fill="#1F1F1F"/>
<path d="M108.56 44.8536C106.042 43.5351 105.629 40.58 105.629 40.58C105.629 40.58 105.309 41.6711 105.446 42.7168C103.706 42.6259 102.928 41.171 102.561 39.9435C102.973 37.9886 104.53 37.2612 104.622 37.2157C104.622 37.3066 104.027 40.4891 105.126 42.0803C105.08 41.2165 105.721 39.1252 106.637 38.716C106.728 38.7615 106.774 38.7615 106.866 38.716C106.866 38.9888 106.866 39.2161 106.866 39.4434C106.912 40.7164 107.095 41.6257 107.324 42.3076C107.782 43.717 108.469 44.0807 108.469 44.0807C108.469 44.0807 108.698 44.4444 108.56 44.8536Z" fill="#1F1F1F"/>
<path d="M124.771 26.7591C124.771 26.7591 131.412 32.442 132.785 45.3082C133.289 44.2625 133.335 40.7164 133.335 40.7164C133.335 40.7164 131.732 32.7148 126.099 24.7587C128.069 26.4863 135.075 35.9427 135.258 45.2173C135.441 54.4919 133.655 63.6755 128.939 69.3585C128.481 69.2221 126.557 66.6306 124.726 64.6757C123.352 63.2209 121.886 62.3116 121.886 62.3116C121.886 62.3116 127.519 63.9937 131.32 57.9471C130.038 60.3567 127.336 60.4021 125.138 60.4021C126.191 59.4474 129.259 56.5377 128.572 55.6284C127.427 56.3559 127.427 57.2197 123.26 56.3559C125.046 54.992 134.113 47.8996 124.771 26.7591Z" fill="#1F1F1F"/>
<path d="M44.7227 89.2716C44.7227 89.2716 48.661 86.3619 49.5311 85.1798C49.9433 84.7252 50.0806 84.5433 50.0806 84.5433C50.0806 84.5433 44.5395 87.6349 43.6236 87.9077C43.532 88.2259 43.3947 89.5443 43.3947 89.5443L44.7227 89.2716Z" fill="#1F1F1F"/>
<path d="M56.5835 27.3046C56.5835 27.3046 44.5853 43.6715 47.2872 56.9014C48.8442 64.4938 51.9582 68.4946 51.9582 68.4946L55.2554 65.9031C55.2554 65.9031 49.2563 57.9925 49.8517 57.356C50.1264 57.356 52.3704 59.6746 53.8816 59.9929C52.1414 58.3562 50.676 54.901 51.5919 54.4009C52.5993 54.9919 54.9807 56.9014 57.7741 56.3103C57.133 55.8102 52.7367 52.4914 52.8741 43.9442C53.0115 35.3971 56.5835 27.3046 56.5835 27.3046Z" fill="#2D2D2D"/>
<path d="M56.8582 26.759C56.8582 26.759 48.89 33.624 51.2255 49.8091C49.8059 50.4001 50.0807 55.5829 50.0807 55.5829C50.0807 55.5829 49.0732 54.6282 48.8442 55.5829C48.661 56.5377 48.7526 63.5845 54.248 65.9032C55.3928 64.8121 56.0797 64.7211 56.0797 64.7211C56.0797 64.7211 49.9891 61.175 49.8517 57.4015C51.5919 59.0836 51.8209 59.9929 53.8816 60.0384C52.0956 58.1744 51.2255 56.765 51.5003 54.1281C52.3246 54.9919 55.0723 57.0378 57.8199 56.3558C57.1788 55.9012 52.5536 51.9004 52.5994 45.6264C52.5994 34.8061 56.8582 26.759 56.8582 26.759Z" fill="#1F1F1F"/>
<path d="M46.8751 162.195C46.8751 162.195 43.5321 155.512 45.1807 147.783C46.1881 149.284 49.9891 151.102 49.9891 151.102L47.562 146.51C47.562 146.51 58.1405 156.74 68.2611 161.831C78.3358 166.923 74.9013 174.061 74.9013 174.061L93.8601 174.97C93.8601 174.97 102.515 165.56 104.53 165.196C103.798 168.151 103.66 169.788 104.347 171.788C105.217 169.742 106.912 167.514 109.384 165.196C114.147 160.786 122.344 154.785 125.825 145.874C127.382 151.284 126.145 161.104 122.802 168.333C125.412 167.242 132.327 163.15 132.327 163.15C132.327 163.15 128.664 138.963 127.382 137.054C126.054 135.144 126.512 138.963 126.512 138.963C126.512 138.963 126.145 133.371 123.901 132.689C123.306 133.553 128.71 148.011 107.644 162.741C108.606 160.559 110.484 153.694 109.247 153.102C107.919 155.739 103.981 162.695 98.7601 165.605C92.5779 169.015 88.1358 171.561 87.9527 173.243C87.6779 172.561 86.533 170.924 91.1583 165.378C87.4947 166.287 84.1975 173.516 84.1975 173.516C84.1975 173.516 80.5798 159.104 70.734 151.875C68.719 152.739 71.1003 159.604 71.1003 159.604L53.4237 147.374C53.4237 147.374 47.4704 140.782 48.9358 137.145C48.3405 137.736 45.8676 138.418 45.9592 144.783C44.4022 142.509 43.9442 142.373 43.9442 142.373L38.3573 155.648L46.8751 162.195Z" fill="#111111"/>
<path d="M79.7554 161.604L70.6881 150.829C70.6881 150.829 68.49 153.966 70.9171 158.876C69.9554 158.24 58.6899 150.829 56.8124 149.374C54.9806 147.92 47.8825 144.328 48.9815 135.826C48.9815 135.826 50.1722 140.282 52.5535 143.419C56.3544 148.511 65.1012 153.012 67.9862 155.603C67.803 154.194 67.0245 151.329 68.4442 147.692C69.8638 144.055 70.5507 142.873 70.5507 142.873C70.5049 144.737 70.5507 148.056 73.161 151.966C75.7255 155.921 79.618 160.058 79.7554 161.604Z" fill="#111111"/>
<path d="M127.656 136.461L127.611 136.235C127.611 136.235 127.656 136.281 127.656 136.461Z" fill="#111111"/>
<path d="M140.937 104.547C140.937 104.638 140.937 104.775 140.891 104.866C139.838 103.047 139.746 102.274 138.83 101.683C138.647 101.592 138.647 101.456 138.647 101.41L139.059 102.956C139.7 105.411 140.067 109.23 136.77 111.185C136.541 109.185 136.312 106.639 133.198 104.956C134.068 106.911 134.8 108.73 132.373 111.958C132.053 108.548 130.175 106.548 125.87 107.275C125.138 112.776 125.87 117.323 131.457 120.687C127.29 121.051 123.627 116.277 123.214 115.686C123.764 116.504 129.626 125.688 126.97 137.236C127.427 136.872 127.611 136.599 127.656 136.463L127.702 136.736C127.244 137.19 126.832 137.645 126.512 138.054C125.596 134.644 125 133.78 123.901 132.371C124.771 143.601 120.696 155.421 107.415 162.559C108.148 158.876 109.705 155.603 109.247 153.83C108.743 154.603 103.752 161.422 103.248 161.968C100.088 165.287 89.876 170.97 89.876 170.97C89.876 170.97 88.1817 172.379 87.9527 173.061C87.7695 173.743 87.8611 169.56 91.0209 167.469C94.1349 165.378 100.958 160.331 102.195 159.195C103.431 158.058 109.43 148.42 110.713 140.554C109.11 141.964 107.324 141.782 107.324 141.782C107.324 141.782 110.896 138.918 111.995 133.144C113.094 127.37 111.033 123.415 109.751 122.46C108.514 121.505 116.07 124.369 117.811 136.554C118.681 133.553 118.543 125.097 117.078 122.278C119.047 123.006 119.871 124.642 119.871 124.642C119.871 124.642 118.955 120.05 119.505 118.368C118.314 117.641 118.314 113.094 118.314 113.094C118.314 113.094 117.398 113.867 116.162 113.094C116.391 112.549 120.238 111.049 123.214 104.82C124.542 104.047 127.427 100.274 128.252 97.3186C129.534 98.2279 131.228 102.592 130.587 103.684C131.915 101.774 132.419 94.8181 128.801 87.3621C130.496 89.2715 139.471 92.4995 141.486 92.3176C141.532 92.3176 142.356 92.1812 141.99 92.3176C141.624 92.4995 140.708 92.8177 140.204 92.9086H140.158C138.51 93.2269 136.266 93.2269 134.8 93.1814C134.434 93.1814 134.113 93.1359 133.839 93.1359C133.472 93.1359 133.61 93.1359 133.61 93.1359C133.61 93.1359 141.578 98.4552 140.937 104.547Z" fill="#111111"/>
<path d="M127.656 136.461L127.611 136.235C127.611 136.235 127.656 136.281 127.656 136.461Z" fill="#111111"/>
<path d="M138.006 89.817C138.006 89.817 132.236 87.4529 130.999 84.8615C132.511 85.5435 134.205 85.498 134.205 85.498C134.205 85.498 128.984 76.2234 129.168 75.8597C128.847 75.5415 127.885 74.6776 128.16 74.3594C128.801 74.6322 135.441 76.9963 135.441 76.9963C135.441 76.9963 134.48 76.4962 134.022 75.9052C133.564 75.3141 128.069 70.3131 126.924 67.4944C128.664 68.3582 129.397 70.1767 129.397 70.1767C132.419 73.2683 135.258 77.2236 139.792 78.3147C139.792 78.3147 134.892 79.0422 132.053 77.4055C132.19 78.0874 138.968 84.6342 138.006 89.817Z" fill="#111111"/>
<path d="M109.11 40.7164C109.11 40.7164 111.445 44.4444 112.911 45.5356C114.376 46.6267 118.406 51.4004 118.406 52.0369C116.757 51.1276 111.491 46.7631 111.491 46.7631C111.491 46.7631 107.553 43.2169 107.553 42.7623C107.553 42.3077 109.11 40.7164 109.11 40.7164Z" fill="#111111"/>
<path d="M123.581 56.265C123.581 56.265 128.16 53.6281 128.71 43.9444C129.305 34.2606 125.367 28.7595 125.367 28.7595C125.367 28.7595 130.129 33.8969 130.175 42.2622C130.175 42.2622 131.503 51.1731 126.695 55.9013C129.213 55.8558 129.9 53.0371 129.9 53.0371C129.9 53.0371 132.144 55.4921 130.129 58.6291C130.312 58.8564 131.686 57.1743 131.686 57.1743C131.686 57.1743 133.655 63.0845 126.283 66.1306C125.321 65.1304 124.863 64.7667 124.863 64.7667L126.512 64.2666C126.512 64.2666 131.228 61.2205 131.412 58.3563C130.908 58.3563 129.992 59.6293 127.931 59.8566C128.252 59.1747 129.488 57.8108 129.488 57.8108C129.488 57.8108 130.725 54.8556 130.038 54.5374C128.984 55.4012 127.336 56.6287 123.581 56.265Z" fill="#111111"/>
<path d="M61.4834 55.5829C61.4834 55.5829 61.8956 48.3088 64.0479 45.8992C63.6816 44.5807 57.0872 28.8503 60.5217 20.4396C60.9339 20.1213 60.9339 20.1213 60.9339 20.1213C60.9339 20.1213 66.8414 34.897 68.1694 36.0336C69.4975 37.1702 73.4358 42.6713 74.0769 42.5349C74.718 42.353 62.4451 53.1734 61.4834 55.5829Z" fill="#111111"/>
<path d="M50.0807 58.5836C50.0807 58.5836 50.0807 62.2207 54.0648 65.0394C53.9274 65.585 52.1414 67.8127 52.1414 67.8127L52.7826 69.0857L56.4003 64.8121C56.3087 64.8121 51.5919 63.13 50.0807 58.5836Z" fill="#111111"/>
<path d="M76.1377 64.3575C76.1377 64.3575 79.1601 66.5398 79.8013 68.9948C80.1676 70.3587 79.847 73.132 79.2059 74.2232C78.7938 74.996 79.4807 74.9506 79.4807 74.9506C79.4807 74.9506 81.4041 72.1318 81.0377 70.3587C80.6714 68.5857 80.2134 66.1306 76.1377 64.3575Z" fill="#111111"/>
<path d="M51.7292 53.1735C52.3245 53.4463 54.3395 54.4919 54.3395 54.4919C54.3395 54.4919 52.2787 51.4913 51.8208 48.5817C51.3171 45.672 49.8516 40.2164 55.118 29.8961C55.0722 31.0327 53.332 36.5793 53.103 39.1707C52.1871 48.8544 53.8815 50.9912 57.6825 56.0377C55.3012 57.538 51.2713 54.8556 51.7292 53.1735Z" fill="#111111"/>
<path d="M105.309 64.3575C105.309 64.3575 102.286 66.5398 101.645 68.9948C101.279 70.3587 101.599 73.132 102.24 74.2232C102.653 74.996 101.966 74.9506 101.966 74.9506C101.966 74.9506 100.042 72.1318 100.409 70.3587C100.775 68.5857 101.233 66.1306 105.309 64.3575Z" fill="#111111"/>
<path d="M85.3882 120.823C85.3882 120.823 89.2349 119.641 90.8377 118.186C91.433 118.959 94.8218 121.142 96.2872 120.551C97.02 120.05 97.2489 119.096 97.2489 119.096C97.2489 119.096 90.6087 116.595 90.7919 115.231C90.105 116.05 85.8461 118.914 84.1517 119.005C84.1517 119.778 85.3882 120.823 85.3882 120.823Z" fill="#111111"/>
<path d="M43.8984 77.4965C43.8984 77.4965 44.4938 77.451 45.9134 77.0873C47.333 76.7236 50.6302 75.4961 51.9125 74.4504C52.1872 74.314 52.233 74.5868 52.233 74.5868C52.233 74.5868 51.9583 75.4506 50.676 76.4054C49.4396 77.3601 46.234 78.6331 43.1199 78.4058C42.0667 78.042 42.5246 77.9511 42.5246 77.9511L43.8984 77.4965Z" fill="#1D1E1E"/>
<path d="M77.2367 99.2735C77.2367 99.2735 80.0759 96.8639 82.0909 96.2729C84.1059 95.6819 84.518 97.4095 84.518 97.4095L85.8003 102.592L87.861 102.047C87.861 102.047 85.7545 98.4097 86.0292 96.5911C86.304 94.7726 87.9068 94.0452 88.4563 93.8633C90.3797 93.1814 94.1806 92.7722 96.6993 93.4087C95.5087 92.4539 89.189 91.6811 85.7087 92.954C82.1825 94.227 79.2516 95.9092 77.2367 99.2735Z" fill="#565756"/>
<path d="M83.8769 55.583C83.8769 55.583 82.0909 62.1752 81.8619 62.9936C81.5872 64.1301 81.8161 64.9485 82.3199 64.903C82.8236 64.8576 83.0068 64.0847 83.19 63.2663C83.6479 61.0386 83.8769 55.583 83.8769 55.583Z" fill="#565756"/>
<path d="M64.689 65.3577C64.689 65.3577 66.2918 64.2211 68.9937 63.8574C71.6498 63.4482 72.9778 63.5391 72.9778 63.5391C72.9778 63.5391 74.6264 63.4482 74.4433 65.1303C74.3059 65.8123 73.8021 65.8123 73.8021 65.8123C73.8021 65.8123 65.2844 65.9942 65.0554 65.9487C64.5975 65.8578 64.1853 65.6759 64.689 65.3577Z" fill="#565756"/>
<path d="M116.712 65.3577C116.712 65.3577 115.109 64.2211 112.407 63.8574C109.751 63.4482 108.423 63.5391 108.423 63.5391C108.423 63.5391 106.774 63.4482 106.957 65.1303C107.095 65.8123 107.598 65.8123 107.598 65.8123C107.598 65.8123 116.116 65.9942 116.345 65.9487C116.849 65.8578 117.261 65.6759 116.712 65.3577Z" fill="#565756"/>
<path d="M39.7769 91.7264C39.7769 91.7264 41.9292 91.9538 43.8526 91.2718C45.2264 90.7717 48.1572 89.0896 49.8974 86.8164C51.6376 84.5432 52.3245 82.8611 52.4161 81.9518C51.7292 82.952 44.9974 90.4535 39.7769 91.7264Z" fill="#565756"/>
<path d="M54.6601 85.4071C54.6601 85.4071 54.7517 85.1343 55.0264 85.1343C55.347 85.1343 55.0264 85.7253 55.0264 85.7253C55.0264 85.7253 52.7825 90.9991 52.3704 92.7267C51.9582 94.4543 51.2713 96.8639 51.4545 99.5462C51.0423 100.819 50.8134 103.274 50.8134 103.274C50.8134 103.274 48.3405 100.319 49.9433 93.9997C51.5461 87.8166 54.6601 85.4071 54.6601 85.4071Z" fill="#565756"/>
<path d="M49.7143 78.0873C49.8975 77.8145 50.8134 76.7234 50.9508 76.7234C51.0882 76.7689 51.5919 76.5415 51.3171 77.2235C51.0424 77.9054 48.2489 81.6335 48.2489 81.6335C48.2489 81.6335 44.5396 86.7254 43.8526 87.7256C42.7994 87.3619 43.99 85.1341 45.2723 83.4975C46.5545 81.8153 49.7143 78.0873 49.7143 78.0873Z" fill="#565756"/>
<path d="M57.2703 64.1756C57.2703 64.1756 58.3694 63.0844 58.6442 63.2663C58.9189 63.4481 58.9647 63.7664 58.6442 64.1756C58.3236 64.5847 54.5227 69.222 54.5227 69.222C54.5227 69.222 50.9965 73.8593 48.432 74.5867C49.1189 73.4956 53.4694 68.631 53.4694 68.631L57.2703 64.1756Z" fill="#565756"/>
<path d="M61.4835 55.5829C61.4835 55.5829 60.5218 56.7195 60.9797 56.9923C61.4377 57.2196 62.6741 56.0376 63.6358 54.9464C63.6358 54.9464 67.9863 50.5819 68.8106 49.7636C70.6881 47.8996 73.5732 45.7173 73.8021 43.8079C73.2068 44.3989 68.9937 47.7177 68.3068 48.1724C67.5283 48.6725 62.1246 53.9008 61.4835 55.5829Z" fill="#565756"/>
<path d="M36.5255 121.323C36.5255 121.323 37.0293 122.46 41.2423 121.823C45.4554 121.187 49.4395 116.959 50.2638 115.186C49.0274 116.004 45.8676 118.596 45.8676 118.596C45.8676 118.596 42.5246 121.46 36.5255 121.323Z" fill="#565756"/>
<path d="M122.711 115.368C122.711 115.368 126.466 127.325 125.55 134.553C125.87 135.735 126.557 138.054 126.557 138.054C126.557 138.054 130.862 128.416 122.711 115.368Z" fill="#2D2D2D"/>
<path d="M123.398 131.78C122.894 130.416 122.344 129.961 122.344 129.961C122.344 129.961 122.482 147.692 112.682 158.194C115.155 156.694 126.969 145.237 123.398 131.78Z" fill="#2D2D2D"/>
<path d="M133.472 93.3177C133.472 93.3177 139.426 101.819 136.998 110.594C138.006 110.73 140.662 107.23 139.105 101.365C139.655 102.456 140.937 105.411 140.937 105.411C140.937 105.411 142.814 99.819 133.472 93.3177Z" fill="#1D1E1E"/>
<path d="M132.282 112.003C132.282 112.003 133.014 107.139 132.556 104.229C133.381 105.366 135.212 108.548 132.282 112.003Z" fill="#1D1E1E"/>
<path d="M101.37 118.05C101.37 118.05 103.935 116.413 105.263 113.913C106.454 111.685 108.743 106.73 109.796 105.911C110.758 105.184 111.354 104.956 111.354 104.956L107.69 104.729L104.622 112.685L101.37 118.05Z" fill="#111111"/>
<path d="M109.11 41.5802C109.11 41.5802 110.392 42.1258 111.354 41.7621C112.315 41.3984 114.651 38.2614 116.528 34.3515C118.406 30.4417 121.703 22.3491 121.291 20.1669C120.741 20.0305 119.871 21.94 119.871 21.94L115.292 32.2147L109.11 41.5802Z" fill="#565656"/>
<path d="M62.0165 74.0285C62.0165 74.0285 59.3775 82.1275 65.52 87.9515C71.617 93.7755 80.535 90.454 80.535 90.454L81.2175 84.0385C81.2175 84.0385 78.7605 73.619 77.3955 73.346C76.0305 73.073 71.344 69.251 62.062 73.8465" fill="#802B27"/>
<path d="M119.847 74.0285C119.847 74.0285 122.486 82.1275 116.343 87.9515C110.246 93.7755 101.328 90.454 101.328 90.454L100.646 84.0385C100.646 84.0385 103.103 73.619 104.468 73.346C105.833 73.073 110.519 69.251 119.801 73.8465" fill="#802B27"/>
<path d="M98.462 107.789C98.462 107.789 98.4165 107.835 98.371 107.926C97.7795 108.745 94.0485 113.386 90.4086 113.386C86.4046 113.249 83.6746 108.244 83.6746 108.244C83.6746 108.244 83.6746 107.835 83.8566 107.152C84.0841 106.197 84.6301 104.741 85.9041 103.194C90.5906 100.191 96.5056 103.194 96.5056 103.194L98.462 107.789Z" fill="#181718"/>
<path d="M98.3711 107.88C97.7796 108.699 94.0486 113.34 90.4086 113.34C86.4046 113.204 83.6746 108.199 83.6746 108.199C83.6746 108.199 83.6746 107.789 83.8566 107.107C84.5846 107.38 90.3631 109.382 91.0001 109.382C91.6826 109.336 97.7341 106.47 97.7341 106.47L98.3711 107.88Z" fill="#141414"/>
<path d="M81.0809 88.7251C81.0809 88.7251 84.0839 78.0781 76.3944 72.0266C74.4379 70.6616 67.2489 70.4341 65.0194 72.7546C62.3804 75.4846 63.6544 85.1306 69.2964 88.0426C74.9384 90.9546 81.0809 88.7251 81.0809 88.7251Z" fill="#E6E7E8"/>
<path d="M63.427 76.6675C63.427 76.6675 65.3835 75.4845 67.6585 75.3025C69.9335 75.1205 79.261 82.355 79.261 82.355C79.261 82.355 81.1265 85.5855 81.1265 86.4955C81.1265 87.4056 81.627 76.804 79.625 75.257C77.623 73.71 74.984 69.0235 64.883 71.9355C64.3825 73.3915 63.427 76.6675 63.427 76.6675Z" fill="#CAD1D5"/>
<path d="M100.873 88.7252C100.873 88.7252 97.8704 78.0782 105.56 72.0267C107.516 70.6617 114.705 70.4342 116.935 72.7547C119.574 75.4847 118.3 85.1307 112.658 88.0427C107.016 90.9547 100.873 88.7252 100.873 88.7252Z" fill="#E6E7E8"/>
<path d="M118.391 76.6675C118.391 76.6675 116.434 75.4845 114.159 75.3025C111.884 75.1205 102.557 82.355 102.557 82.355C102.557 82.355 100.691 85.5855 100.691 86.4955C100.691 87.4055 100.191 76.804 102.193 75.257C104.195 73.71 106.834 69.0235 116.935 71.9355C117.481 73.3915 118.391 76.6675 118.391 76.6675Z" fill="#CAD1D5"/>
<path d="M73.346 86.541C77.2409 86.541 80.3985 83.078 80.3985 78.806C80.3985 74.5341 77.2409 71.071 73.346 71.071C69.451 71.071 66.2935 74.5341 66.2935 78.806C66.2935 83.078 69.451 86.541 73.346 86.541Z" fill="url(#paint3_linear_560_1202)"/>
<path d="M70.1155 80.7626C68.432 79.9436 68.432 82.9466 68.432 82.9466C68.432 82.9466 70.1155 85.5401 73.0275 85.5856C76.531 85.6311 77.9415 83.2196 77.9415 83.2196C77.9415 83.2196 78.8515 80.0346 75.9395 80.9446C75.439 81.4451 74.711 82.8101 73.1185 82.6736C72.2085 82.5371 71.7535 82.7646 70.1155 80.7626Z" fill="#FCE05D"/>
<path d="M70.707 81.6725C69.342 81.0355 69.3875 83.4015 69.3875 83.4015C69.3875 83.4015 70.6615 85.2215 73.0275 85.267C75.8485 85.3125 76.895 83.4925 76.895 83.4925C76.895 83.4925 77.714 81.081 75.348 81.809C74.9385 82.2185 74.347 83.3105 73.073 83.2195C72.3905 83.174 72.0265 83.356 70.707 81.6725Z" fill="#FCE05D"/>
<path d="M73.346 86.541C77.2409 86.541 80.3985 83.078 80.3985 78.806C80.3985 74.5341 77.2409 71.071 73.346 71.071C69.451 71.071 66.2935 74.5341 66.2935 78.806C66.2935 83.078 69.451 86.541 73.346 86.541Z" stroke="black" stroke-width="0.681818" stroke-miterlimit="10"/>
<path d="M73.2549 83.174C75.3155 83.174 76.9859 81.0758 76.9859 78.4875C76.9859 75.8992 75.3155 73.801 73.2549 73.801C71.1944 73.801 69.5239 75.8992 69.5239 78.4875C69.5239 81.0758 71.1944 83.174 73.2549 83.174Z" fill="black"/>
<path d="M71.7727 77.5375C72.6506 75.8981 72.4464 74.0787 71.3166 73.4736C70.1867 72.8686 68.5591 73.7071 67.6812 75.3465C66.8033 76.9858 67.0076 78.8053 68.1374 79.4103C69.2673 80.0154 70.8949 79.1769 71.7727 77.5375Z" fill="white"/>
<path d="M108.654 86.541C112.549 86.541 115.706 83.078 115.706 78.806C115.706 74.5341 112.549 71.071 108.654 71.071C104.759 71.071 101.601 74.5341 101.601 78.806C101.601 83.078 104.759 86.541 108.654 86.541Z" fill="url(#paint4_linear_560_1202)"/>
<path d="M105.469 80.7626C103.786 79.9436 103.786 82.9466 103.786 82.9466C103.786 82.9466 105.469 85.5401 108.381 85.5856C111.885 85.6311 113.295 83.2196 113.295 83.2196C113.295 83.2196 114.205 80.0346 111.293 80.9446C110.793 81.4451 110.065 82.8101 108.472 82.6736C107.517 82.5826 107.062 82.8101 105.469 80.7626Z" fill="#FCE05D"/>
<path d="M106.061 81.718C104.696 81.081 104.741 83.447 104.741 83.447C104.741 83.447 106.015 85.267 108.381 85.3125C111.202 85.358 112.249 83.538 112.249 83.538C112.249 83.538 113.068 81.1265 110.702 81.8545C110.292 82.264 109.701 83.356 108.427 83.265C107.744 83.174 107.335 83.356 106.061 81.718Z" fill="#FCE05D"/>
<path d="M108.654 86.541C112.549 86.541 115.706 83.078 115.706 78.806C115.706 74.5341 112.549 71.071 108.654 71.071C104.759 71.071 101.601 74.5341 101.601 78.806C101.601 83.078 104.759 86.541 108.654 86.541Z" stroke="black" stroke-width="0.681818" stroke-miterlimit="10"/>
<path d="M108.563 83.2196C110.624 83.2196 112.294 81.1213 112.294 78.5331C112.294 75.9448 110.624 73.8466 108.563 73.8466C106.502 73.8466 104.832 75.9448 104.832 78.5331C104.832 81.1213 106.502 83.2196 108.563 83.2196Z" fill="black"/>
<path d="M107.1 77.5163C107.978 75.8769 107.774 74.0574 106.644 73.4524C105.514 72.8473 103.887 73.6859 103.009 75.3252C102.131 76.9646 102.335 78.7841 103.465 79.3891C104.595 79.9941 106.223 79.1556 107.1 77.5163Z" fill="white"/>
<path d="M90.9545 113.886C86.723 113.659 83.538 109.427 83.1285 108.108C82.901 107.198 84.448 103.694 85.4035 102.739C86.4955 101.556 90.545 101.328 91 101.283L91.0455 102.193C89.4985 102.284 86.723 102.648 86.086 103.376C85.2215 104.195 83.993 107.289 84.0385 107.835C84.448 109.018 87.36 112.749 91.0455 112.931L90.9545 113.886Z" fill="black"/>
<path d="M77.532 99.2354C80.4895 95.7319 83.6745 92.5469 91 92.3194C91 91.9554 91 91.5914 91 91.4094C88.5885 91.2274 80.353 92.8654 77.532 99.2354Z" fill="#231F20"/>
<path d="M69.979 105.014C69.979 105.014 72.2085 103.603 73.255 103.785C74.3015 103.967 74.893 104.513 75.2115 105.014C76.2125 106.606 77.623 115.206 81.9455 117.799C83.902 119.119 88.179 117.526 89.635 115.979C90.454 115.115 89.9535 113.295 89.9535 113.295L90.9545 113.431V115.615C90.9545 115.615 88.2245 119.756 83.0375 119.255C77.35 118.664 75.4845 107.016 73.892 105.287C73.255 104.604 71.9355 104.604 69.979 105.014Z" fill="black"/>
<path d="M60.6515 75.9395C60.606 75.8485 60.788 75.2115 60.9245 74.984C63.245 71.162 70.616 66.794 77.532 71.9355C80.626 74.0285 82.9465 80.5805 82.5825 86.45C82.4005 89.3164 81.6725 90.4539 81.536 90.4539C81.1265 89.18 81.1265 88.361 80.717 87.9515C81.5815 84.812 80.0345 75.348 75.439 72.7545C71.89 70.7525 66.1115 71.526 61.1975 75.53C60.97 75.621 60.6515 75.9395 60.6515 75.9395Z" fill="black"/>
<path d="M65.5654 72.0265C62.5624 75.5755 63.2449 81.3085 66.5209 85.631C69.8879 90.09 76.0304 89.544 78.3964 89.271" stroke="black" stroke-width="0.681818" stroke-miterlimit="10"/>
<path d="M77.8505 88.998C79.17 88.816 80.2165 88.4065 80.717 87.724C82.264 88.452 81.718 90.5905 81.354 90.545C80.99 90.4995 79.8525 89.9535 79.079 89.726C78.806 89.726 77.8505 89.726 77.35 89.7715L77.8505 88.998Z" fill="black"/>
<path d="M58.3765 104.559C55.328 102.966 53.9175 99.4175 53.599 97.825C52.962 99.099 51.7335 101.692 51.9155 103.74L52.052 104.923L51.324 103.967C47.502 99.0535 50.505 91.8645 52.5525 88.088C52.871 87.451 54.327 85.3125 55.783 84.448C55.055 85.54 54.145 86.6775 53.235 88.361C51.3695 91.7735 48.7305 98.098 51.2785 102.648C51.506 99.827 53.235 96.8695 53.2805 96.733L53.9175 95.6865C53.9175 95.6865 54.0085 96.6875 54.1905 97.4155C54.327 98.007 55.328 101.556 58.1945 103.649C58.6495 103.967 60.0145 105.014 61.5615 105.605C60.151 105.423 58.877 104.832 58.3765 104.559Z" fill="black"/>
<path d="M50.232 112.613L49.6405 112.249C49.595 112.249 46.592 110.247 48.139 105.651C46.2735 107.062 45.3635 109.2 45.864 111.339C45.864 111.339 46.046 111.93 46.137 112.112C45.682 112.067 45.1815 111.703 45.1815 111.703C42.4515 109.61 41.7235 106.925 42.5425 102.921C42.224 103.376 41.86 103.877 41.4505 104.65C41.041 105.378 40.9045 106.516 40.9045 106.516C40.9045 106.516 40.3585 105.651 40.404 104.65C40.5405 101.693 42.3605 97.5975 47.0925 93.5935C44.135 93.9575 40.95 93.457 38.766 92.1375L37.947 91.637L38.9025 91.5005C40.404 91.364 43.316 89.7715 44.59 89.089C44.954 88.907 45.591 88.5885 45.6365 88.7705C45.7275 88.9525 45.227 89.4075 44.9995 89.5895C44.044 90.2265 41.8145 91.637 39.9035 91.9555C42.2695 93.002 45.591 93.3205 48.321 92.6835L49.868 92.3195L48.594 93.275C43.6345 97.0515 41.5415 101.01 41.1775 103.968C41.769 102.739 42.497 101.829 43.043 101.329L43.953 100.51L43.6345 101.693C42.224 106.698 43.498 109.064 45.136 110.611C44.954 108.199 46.319 105.924 48.7305 104.559L49.6405 104.059L49.231 105.014C47.684 108.563 48.867 110.52 49.595 111.339C49.7315 109.974 50.505 107.198 54.2815 106.698C56.875 106.379 58.7405 107.471 59.9235 108.654C61.0155 109.701 60.97 110.793 60.9245 111.111C60.879 111.02 60.333 109.928 59.241 108.927C58.149 107.972 56.5565 107.107 54.3725 107.38C50.0045 107.926 50.232 111.839 50.232 112.021V112.613Z" fill="black"/>
<path d="M43.7709 90.1354C43.5889 90.1354 43.4524 89.9989 43.4069 89.8169C43.3614 85.4034 46.7284 81.2174 48.7759 78.7149C49.0034 78.4419 49.2309 78.1689 49.4129 77.9414C46.3189 79.2609 43.3614 78.8969 42.2239 78.4874C41.6779 78.3054 41.5414 78.2144 41.2684 78.0324L42.2239 77.7139C43.5889 77.2589 47.1379 75.8029 50.5049 71.9809C51.0509 71.4349 51.8699 70.3884 52.8709 69.2054C55.5554 65.9294 57.7394 63.6544 58.8769 63.2449C59.0589 63.1994 57.9669 64.2004 57.5574 64.6554C56.3744 65.9749 54.9639 67.8859 53.4169 69.6149C52.3704 70.7979 51.5514 71.8444 51.0509 72.4359C48.0024 75.9394 45.4999 77.3044 43.7254 78.0324C45.2724 78.3054 47.8204 78.2599 50.4139 76.6674L51.5059 75.9849L50.9144 77.1224C50.6414 77.6229 50.0954 78.2599 49.4129 79.1244C47.4564 81.5359 44.1804 85.5854 44.2259 89.7714C44.0894 89.9534 43.9529 90.0899 43.7709 90.1354Z" fill="black"/>
<path d="M61.88 55.601C61.88 55.601 62.2895 53.963 62.9265 52.9165C64.0185 51.1875 65.9295 49.322 67.3855 48.3665C70.4795 46.2735 73.164 43.953 73.9375 42.9065C74.438 42.2695 74.5745 40.586 74.5745 39.3575C74.5745 38.857 74.4835 38.5385 74.3925 37.856C74.8475 37.765 75.621 38.129 75.985 38.584C76.4855 39.2665 76.804 40.1765 76.9405 41.041C77.35 40.1765 77.3955 39.13 76.895 37.1735L76.7585 36.5365L77.35 36.764C78.624 37.2645 79.8525 38.9025 79.716 41.4505C83.265 39.9945 88.725 39.8125 91 39.8125V40.495C88.6795 40.495 82.8555 40.677 79.4885 42.315L78.9425 42.588L79.0335 41.951C79.261 39.9035 78.624 38.493 77.7595 37.765C78.1235 39.585 78.0325 40.677 77.35 41.769C77.259 41.9055 76.713 42.497 76.3945 42.6335C76.3945 42.315 76.3945 41.678 76.349 41.496C76.2125 40.131 75.985 39.9035 75.348 39.221C75.439 40.586 75.166 42.588 74.711 43.316C74.0285 44.408 71.2075 46.8195 67.977 49.14C64.064 51.9155 61.9255 55.5555 61.88 55.601Z" fill="black"/>
<path d="M56.7384 65.065C54.4179 64.2915 50.5959 61.0155 50.2319 58.058C50.0954 57.0115 50.2319 56.2835 50.2319 56.2835L50.7779 57.1025C51.8699 58.513 52.8709 59.1045 53.6444 59.2865C52.5524 58.331 51.2784 56.4655 51.6424 54.3725C51.7334 54.0085 52.1429 52.9165 52.1429 52.9165L52.5979 53.6445C53.7809 55.5555 55.5554 55.965 57.4664 56.056C56.0559 54.7365 53.2349 51.3695 52.7799 45.318C52.1884 37.5375 55.8739 28.938 56.0559 28.483C56.4199 27.664 57.0569 26.663 57.2389 26.7085C57.4209 26.7995 53.0529 37.583 53.6444 45.227C54.0539 51.142 56.8749 54.2815 58.1489 55.4645C58.5129 55.783 59.2409 56.3745 59.2409 56.3745C59.2409 56.3745 58.4674 56.7385 57.7849 56.784C56.1469 56.9205 53.9629 56.9205 52.4614 55.1915C52.4159 57.1935 53.6899 58.5585 54.5544 59.2865L55.3279 59.9235L54.3269 59.969C53.0984 60.0145 52.0064 59.5595 51.0054 58.513C51.6879 60.97 54.7819 63.7455 56.9659 64.4735C57.1479 64.519 56.7384 65.065 56.7384 65.065Z" fill="black"/>
<path d="M74.3924 42.224C74.3924 42.224 69.433 37.7195 66.339 31.395C64.428 27.5275 61.789 19.1555 60.515 19.3375C57.876 19.747 50.232 30.485 47.957 39.13C45.3635 49.0945 46.046 58.5585 52.9165 69.251" stroke="black" stroke-width="0.681818" stroke-miterlimit="10" stroke-linecap="round"/>
<path d="M81.172 72.0264C81.0355 72.0719 81.081 71.5259 81.081 70.9344C81.081 67.9769 79.1245 66.2934 77.805 65.3379C77.1225 64.8374 76.4855 64.4279 76.3945 64.2459C76.3035 64.0639 77.077 64.3369 77.714 64.7464C79.625 65.9294 81.991 68.0224 81.6725 70.8434C81.354 71.8899 81.172 72.0264 81.172 72.0264Z" fill="black"/>
<path d="M132.45 121.075C132.45 121.075 131.859 121.212 131.358 121.166C128.264 120.893 126.444 119.801 124.715 117.845C128.583 124.533 128.537 132.086 127.536 136.227C127.309 137.182 127.036 137.956 126.763 138.502L126.171 139.412L126.08 138.365C125.898 136.272 124.806 133.952 123.896 132.678C126.171 144.826 119.847 155.473 107.562 162.89C107.243 163.072 106.606 163.345 106.424 163.436L107.243 161.752C108.108 159.659 108.881 157.248 109.154 154.472C106.925 158.931 101.556 164.846 95.8684 167.849C90.9544 170.306 89.0889 172.445 88.3154 173.355C88.2244 173.446 88.1789 173.491 88.1334 173.582L87.5874 174.174L87.4964 173.355C87.2234 170.852 88.7249 168.532 90.0899 166.712C85.8129 169.578 84.4479 175.038 84.4479 175.084L83.9019 177.268L83.7654 177.859V177.268L83.7199 175.038C83.7199 174.993 83.5834 168.623 80.2164 163.208C78.3509 160.205 75.9394 157.521 74.0284 155.337C72.7999 153.926 71.7534 152.743 71.1164 151.833C70.2064 155.655 71.0254 157.43 71.6624 158.704C72.1629 159.659 72.4359 160.797 72.4359 160.797L71.6169 160.023C71.2529 159.659 69.8879 158.613 67.6129 157.066C65.1104 155.382 61.6524 153.107 57.6029 150.241C50.0044 144.872 49.0034 140.686 48.9124 137.683C47.0924 139.958 46.9559 142.324 47.0469 143.916C47.0469 144.28 47.0469 144.599 47.0924 144.917C47.1379 145.327 47.2289 145.6 47.2289 145.645C47.1834 145.645 46.7739 145.463 46.3644 145.145C45.5454 144.462 44.8629 143.734 44.3169 143.006C44.1349 142.779 43.9529 142.506 43.8164 142.233C42.0419 139.366 41.9054 136.181 42.0874 133.861C42.3604 130.221 43.6344 127.263 44.6809 125.762C39.2209 125.989 35.1714 122.895 33.5789 121.075C32.7599 120.12 32.3049 119.119 32.3049 119.119C32.3049 119.119 33.8519 120.074 34.5344 120.256C38.5839 121.303 41.8599 120.484 46.3644 117.572C51.9609 114.023 54.3269 108.563 54.4179 107.243C54.4179 107.198 54.4179 107.152 54.4179 107.152C54.4179 106.97 54.6454 106.834 54.8729 106.879C55.0549 106.925 55.4644 107.016 55.4189 107.243C55.3279 107.562 53.0984 114.432 46.9104 118.391C42.8154 121.03 39.5849 122.304 34.8529 121.121C37.1279 123.123 40.1764 124.988 45.5909 124.761L47.1834 124.533L45.8639 125.398C45.1359 125.898 43.1339 129.493 42.7699 133.861C42.5424 136.682 42.9974 140.686 46.2734 144.007C46.2734 143.962 46.2734 143.871 46.2734 143.825C45.9549 141.141 46.7284 138.365 48.7304 136.682C48.9124 136.5 49.5039 136.136 49.5039 136.136L49.5494 137.41C49.5949 140.322 50.0499 143.689 58.1034 149.376C62.1984 152.243 65.6109 154.518 68.1134 156.201C69.2964 156.975 70.0699 157.566 70.7524 158.294C69.9334 156.793 69.2509 154.472 70.6614 150.787L70.9799 149.877C70.9799 149.877 71.3439 150.514 71.4349 150.741C71.8899 151.56 72.9819 153.107 74.4834 154.836C76.4399 157.02 78.8514 159.75 80.7624 162.799C83.1739 166.621 83.9474 170.807 84.2204 173.173C85.1304 170.898 87.1779 167.03 91.1819 165.256L92.4559 164.71L91.6369 165.847C91.4549 166.075 91.2729 166.302 91.0909 166.575C89.9079 168.168 88.3154 170.261 88.1334 172.445C89.1344 171.307 91.1819 169.396 95.4589 167.258C102.193 163.754 108.017 156.247 109.154 152.425L109.655 150.787L109.882 152.516C110.11 154.245 109.2 159.113 107.789 161.934C119.528 154.518 124.761 144.735 123.077 131.768L122.895 130.903L124.033 131.813C125.352 133.133 125.989 134.725 126.535 137.137C127.673 133.451 127.991 124.397 122.759 115.661L121.075 112.476L123.805 115.797C126.035 118.482 127.218 119.983 130.221 120.438C127.491 118.072 123.987 114.296 125.307 107.562C125.352 107.425 125.352 107.289 125.398 107.152C125.443 106.97 125.625 106.834 125.853 106.879C126.035 106.925 126.308 106.925 126.308 107.152C126.308 107.243 126.262 107.334 126.262 107.425C124.761 114.569 128.765 118.618 131.631 120.666L132.45 121.075Z" fill="black"/>
<path d="M91.0455 113.886L91 112.976C94.6855 112.749 97.5975 109.018 98.007 107.88C98.0525 107.334 96.824 104.286 95.9595 103.421C95.277 102.693 92.547 102.329 90.9545 102.238V101.328C91.4095 101.374 95.4135 101.601 96.551 102.784C97.5065 103.694 99.008 107.198 98.826 108.062C98.4165 109.427 95.277 113.659 91.0455 113.886Z" fill="black"/>
<path d="M112.021 105.014C112.021 105.014 109.791 103.603 108.745 103.785C107.698 103.967 107.107 104.513 106.788 105.014C105.787 106.606 104.377 115.206 100.054 117.799C98.0979 119.119 93.8209 117.526 92.3649 115.979C91.5459 115.115 92.0464 113.295 92.0464 113.295L91.0454 113.431V115.615C91.0454 115.615 93.7754 119.756 98.9624 119.255C104.65 118.664 106.515 107.016 108.108 105.287C108.745 104.604 110.064 104.604 112.021 105.014Z" fill="black"/>
<path d="M121.394 75.9395C121.44 75.8485 121.258 75.2115 121.121 74.984C118.801 71.162 111.43 66.794 104.514 71.9355C101.42 74.0285 99.0991 80.5805 99.4631 86.45C99.645 89.3164 100.373 90.4539 100.51 90.4539C100.919 89.18 100.919 88.361 101.329 87.9515C100.464 84.812 102.011 75.348 106.607 72.7545C110.156 70.7525 115.934 71.526 120.848 75.53C121.03 75.621 121.349 75.9395 121.394 75.9395Z" fill="black"/>
<path d="M116.48 72.0265C119.483 75.5755 118.8 81.3085 115.524 85.631C112.157 90.09 106.015 89.544 103.649 89.271" stroke="black" stroke-width="0.681818" stroke-miterlimit="10"/>
<path d="M104.149 88.998C102.83 88.816 101.783 88.4065 101.283 87.724C99.736 88.452 100.282 90.5905 100.646 90.545C101.01 90.4995 102.147 89.9535 102.921 89.726C103.194 89.726 104.149 89.726 104.65 89.7715L104.149 88.998Z" fill="black"/>
<path d="M123.623 104.559C126.672 102.966 128.082 99.4175 128.401 97.825C129.038 99.099 130.266 101.692 130.084 103.74L129.948 104.923L130.676 103.967C134.498 99.0535 131.495 91.8645 129.447 88.088C129.129 87.451 127.673 85.3125 126.217 84.448C126.945 85.54 127.855 86.6775 128.765 88.361C130.63 91.7735 133.269 98.098 130.721 102.648C130.494 99.827 128.765 96.8695 128.719 96.733L128.082 95.6865C128.082 95.6865 127.991 96.6875 127.809 97.4155C127.673 98.007 126.672 101.556 123.805 103.649C123.35 103.967 121.985 105.014 120.438 105.605C121.849 105.423 123.123 104.832 123.623 104.559Z" fill="black"/>
<path d="M131.768 112.613L132.359 112.249C132.405 112.249 135.408 110.247 133.861 105.651C135.726 107.062 136.636 109.2 136.136 111.339C136.136 111.339 135.954 111.93 135.863 112.112C136.318 112.067 136.818 111.703 136.818 111.703C139.548 109.61 140.276 106.925 139.457 102.921C139.776 103.376 140.14 103.877 140.549 104.65C140.959 105.378 141.095 106.516 141.095 106.516C141.095 106.516 141.641 105.651 141.596 104.65C141.459 101.693 139.639 97.5975 134.907 93.5935C137.865 93.9575 141.05 93.457 143.234 92.1375L144.053 91.637L143.097 91.5005C141.596 91.364 138.684 89.7715 137.41 89.089C137.046 88.907 136.409 88.5885 136.363 88.7705C136.272 88.9525 136.773 89.4075 137 89.5895C137.956 90.2265 140.185 91.637 142.096 91.9555C139.73 93.002 136.409 93.3205 133.679 92.6835L132.132 92.3195L133.406 93.275C138.365 97.0515 140.458 101.01 140.822 103.968C140.231 102.739 139.503 101.829 138.957 101.329L138.047 100.51L138.365 101.693C139.776 106.698 138.502 109.064 136.864 110.611C137.046 108.199 135.681 105.924 133.269 104.559L132.359 104.059L132.769 105.014C134.316 108.563 133.133 110.52 132.405 111.339C132.268 109.974 131.495 107.198 127.718 106.698C125.125 106.379 123.259 107.471 122.076 108.654C120.984 109.701 121.03 110.793 121.075 111.111C121.121 111.02 121.667 109.928 122.759 108.927C123.851 107.972 125.443 107.107 127.627 107.38C131.995 107.926 131.768 111.839 131.768 112.021V112.613Z" fill="black"/>
<path d="M138.229 90.1354C138.411 90.1354 138.547 89.9989 138.593 89.8169C138.638 85.4034 135.271 81.2174 133.224 78.7149C132.996 78.4419 132.769 78.1689 132.587 77.9414C135.681 79.2609 138.638 78.8969 139.776 78.4874C140.322 78.3054 140.458 78.2144 140.731 78.0324L139.776 77.7139C138.411 77.2589 134.862 75.8029 131.495 71.9809C130.949 71.4349 130.13 70.3884 129.129 69.2054C126.444 65.9294 124.26 63.6544 123.123 63.2449C122.941 63.1994 124.033 64.2004 124.442 64.6554C125.625 65.9749 127.036 67.8859 128.583 69.6149C129.629 70.7979 130.448 71.8444 130.949 72.4359C133.997 75.9394 136.5 77.3044 138.274 78.0324C136.727 78.3054 134.179 78.2599 131.586 76.6674L130.494 75.9849L131.085 77.1224C131.358 77.6229 131.904 78.2599 132.587 79.1244C134.543 81.5359 137.819 85.5854 137.774 89.7714C137.91 89.9534 138.047 90.0899 138.229 90.1354Z" fill="black"/>
<path d="M120.12 55.601C120.12 55.601 119.711 53.963 119.074 52.9165C117.982 51.1875 116.071 49.322 114.615 48.3665C111.521 46.2735 108.836 43.953 108.063 42.9065C107.562 42.2695 107.426 40.586 107.426 39.3575C107.426 38.857 107.517 38.5385 107.608 37.856C107.153 37.765 106.379 38.129 106.015 38.584C105.515 39.2665 105.196 40.1765 105.06 41.041C104.65 40.1765 104.605 39.13 105.105 37.1735L105.242 36.5365L104.65 36.764C103.376 37.2645 102.148 38.9025 102.284 41.4505C98.735 39.9945 93.275 39.8125 91 39.8125V40.495C93.3205 40.495 99.1445 40.677 102.512 42.315L103.058 42.588L102.967 41.951C102.739 39.9035 103.376 38.493 104.241 37.765C103.877 39.585 103.968 40.677 104.65 41.769C104.741 41.9055 105.287 42.497 105.606 42.6335C105.606 42.315 105.606 41.678 105.651 41.496C105.788 40.131 106.015 39.9035 106.652 39.221C106.561 40.586 106.834 42.588 107.289 43.316C107.972 44.408 110.793 46.8195 114.023 49.14C117.982 51.9155 120.12 55.5555 120.12 55.601Z" fill="black"/>
<path d="M125.262 65.065C127.582 64.2915 131.404 61.0155 131.768 58.058C131.905 57.0115 131.768 56.2835 131.768 56.2835L131.222 57.1025C130.13 58.513 129.129 59.1045 128.356 59.2865C129.448 58.331 130.722 56.4655 130.358 54.3725C130.267 54.0085 129.857 52.9165 129.857 52.9165L129.402 53.6445C128.219 55.5555 126.445 55.965 124.534 56.056C125.944 54.7365 128.765 51.3695 129.22 45.318C129.812 37.5375 126.126 28.938 125.944 28.483C125.58 27.664 124.943 26.663 124.761 26.7085C124.579 26.7995 128.947 37.583 128.356 45.227C127.946 51.142 125.125 54.2815 123.851 55.4645C123.487 55.783 122.759 56.3745 122.759 56.3745C122.759 56.3745 123.533 56.7385 124.215 56.784C125.853 56.9205 128.037 56.9205 129.539 55.1915C129.584 57.1935 128.31 58.5585 127.446 59.2865L126.672 59.9235L127.673 59.969C128.902 60.0145 129.994 59.5595 130.995 58.513C130.312 60.97 127.218 63.7455 125.034 64.4735C124.852 64.519 125.262 65.065 125.262 65.065Z" fill="black"/>
<path d="M107.653 42.224C107.653 42.224 112.612 37.7195 115.706 31.395C117.617 27.5275 120.256 19.1555 121.53 19.3375C124.169 19.747 131.813 30.485 134.088 39.13C136.682 49.0945 135.999 58.5585 129.129 69.251" stroke="black" stroke-width="0.681818" stroke-miterlimit="10" stroke-linecap="round"/>
<path d="M100.828 72.0264C100.964 72.0719 100.919 71.5259 100.919 70.9344C100.919 67.9769 102.875 66.2934 104.195 65.3379C104.877 64.8374 105.515 64.4279 105.606 64.2459C105.697 64.0639 104.923 64.3369 104.286 64.7464C102.375 65.9294 100.009 68.0224 100.327 70.8434C100.646 71.8899 100.828 72.0264 100.828 72.0264Z" fill="black"/>
<path d="M104.468 99.2354C101.511 95.7319 98.3255 92.5469 91 92.3194C91 91.9554 91 91.5914 91 91.4094C93.457 91.2274 101.647 92.8654 104.468 99.2354Z" fill="#231F20"/>
<path d="M44.499 142.278C44.408 142.551 44.3625 142.779 44.2715 143.006C44.135 143.416 44.044 143.871 43.862 144.371C42.8155 147.875 40.768 152.516 38.9025 155.564C38.8115 155.701 37.1735 158.067 36.9005 158.385C36.9005 158.385 36.9005 158.431 36.855 158.431L36.036 157.703C36.127 157.566 37.947 154.973 37.9925 154.882C40.04 151.833 41.86 147.602 42.9975 144.098C43.225 143.416 43.4525 142.779 43.6345 142.233C43.68 142.142 43.7255 142.005 43.7255 141.914L44.499 142.278Z" fill="black"/>
<path d="M127.354 135.408C128.401 139.412 131.768 157.93 131.768 167.258" stroke="black" stroke-width="0.681818" stroke-miterlimit="10"/>
<path d="M83.902 118.8C83.902 118.8 85.5855 122.258 91 122.258C96.187 122.258 97.5975 119.028 97.5975 119.028" stroke="black" stroke-width="1.22727" stroke-miterlimit="10"/>
<path d="M79.716 143.37C79.2155 142.824 78.3965 142.233 77.35 141.323C76.2125 140.322 74.6655 138.911 72.8 136.955C69.8879 133.861 68.978 129.629 68.7505 127.172C67.7039 129.493 68.0224 132.905 68.7049 134.407C68.8869 134.816 69.342 135.362 69.6605 135.544C69.2055 135.59 68.1134 135.271 67.4309 134.68C61.6524 128.674 65.1559 120.757 66.5209 119.21C66.6574 119.028 67.3399 118.391 67.7494 118.345C66.7029 119.255 62.1984 127.809 67.7949 134.043C66.7029 130.858 67.0669 127.627 68.7505 125.534L69.5694 124.533L69.4784 125.807C69.3874 127.4 69.888 132.814 73.3005 136.409C75.1205 138.365 76.5765 139.867 77.714 140.868C78.806 141.823 79.17 142.187 79.534 142.597C79.6705 142.779 80.444 143.825 80.2165 143.916C80.262 143.962 79.9435 143.598 79.716 143.37Z" fill="black"/>
<path d="M92.8201 151.379L93.5481 150.196C95.5046 146.92 95.1406 141.824 95.1406 141.778C95.0951 141.551 95.0496 141.232 95.0041 140.959C94.9586 140.732 95.6866 141.46 95.7321 142.688C95.7776 144.326 95.7321 147.056 94.8221 149.377C96.7786 147.193 99.0991 144.736 98.7806 139.003C98.7806 138.821 98.6896 138.229 98.6441 138.047C98.7806 138.002 99.3721 138.912 99.4176 140.049C99.7361 146.283 96.7331 148.876 94.0486 150.787L92.8201 151.379Z" fill="black"/>
<path d="M107.789 141.368L108.381 139.776C109.473 136.454 109.018 133.906 108.563 132.405C108.244 131.404 107.926 130.767 107.789 130.494C107.698 130.266 108.381 130.448 108.881 131.358C109.473 132.405 110.155 134.634 109.791 137.592C111.93 133.178 112.203 128.856 110.656 124.988C110.337 124.26 109.518 122.713 109.382 122.349C109.291 122.167 110.064 122.486 110.656 123.168C112.976 125.762 113.932 133.224 109.791 139.321C109.2 140.185 107.789 141.368 107.789 141.368Z" fill="black"/>
<path d="M177.632 91.091C177.632 118.3 165.074 142.551 145.418 158.385C141.368 161.616 137.046 164.528 132.45 167.03C120.165 173.719 106.106 177.495 91.1365 177.495C88.6795 177.495 86.2225 177.404 83.8565 177.177C83.811 177.177 83.7655 177.177 83.72 177.177C66.066 175.675 49.959 168.85 36.946 158.385C36.673 158.158 36.4 157.93 36.127 157.703C34.3525 156.247 32.669 154.7 31.031 153.107C14.833 137.41 4.77747 115.388 4.77747 91.0455C4.77747 66.703 14.833 44.681 31.031 28.9835C46.592 13.8775 67.8405 4.59546 91.2275 4.59546C111.793 4.59546 130.63 11.7845 145.463 23.751C165.074 39.6305 177.632 63.882 177.632 91.091Z" stroke="black" stroke-width="2.72727" stroke-miterlimit="10"/>
<defs>
<linearGradient id="paint0_linear_560_1202" x1="75.945" y1="3.025" x2="93.7204" y2="159.428" gradientUnits="userSpaceOnUse">
<stop offset="0.2527" stop-color="#4C4C4D"/>
<stop offset="0.6181" stop-color="#2D2D2D"/>
<stop offset="0.8456" stop-color="#1D1E1E"/>
</linearGradient>
<linearGradient id="paint1_linear_560_1202" x1="33.0919" y1="133.15" x2="117.88" y2="133.15" gradientUnits="userSpaceOnUse">
<stop offset="0.3049" stop-color="#2E2E2E"/>
<stop offset="1" stop-color="#434443"/>
</linearGradient>
<linearGradient id="paint2_linear_560_1202" x1="32.1725" y1="133.15" x2="118.109" y2="133.15" gradientUnits="userSpaceOnUse">
<stop stop-color="white"/>
<stop offset="1" stop-color="#231F20"/>
</linearGradient>
<linearGradient id="paint3_linear_560_1202" x1="73.3399" y1="71.0482" x2="73.3399" y2="85.4945" gradientUnits="userSpaceOnUse">
<stop offset="0.3969" stop-color="#661211"/>
<stop offset="0.6021" stop-color="#A91F24"/>
<stop offset="0.6925" stop-color="#F16223"/>
</linearGradient>
<linearGradient id="paint4_linear_560_1202" x1="108.664" y1="71.0603" x2="108.664" y2="85.5066" gradientUnits="userSpaceOnUse">
<stop offset="0.3969" stop-color="#661211"/>
<stop offset="0.6021" stop-color="#A91F24"/>
<stop offset="0.6925" stop-color="#F16223"/>
</linearGradient>
</defs>
</svg>
