<svg width="291" height="301" viewBox="0 0 291 301" fill="none" xmlns="http://www.w3.org/2000/svg">
<path fill-rule="evenodd" clip-rule="evenodd" d="M64.6652 25.3641C88.5926 8.82691 116.722 0 145.5 0C184.076 0.0435531 221.059 15.9146 248.337 44.1295C275.614 72.3444 290.958 110.598 291 150.5C291 180.266 282.466 209.363 266.479 234.113C250.491 258.862 227.768 278.153 201.181 289.544C174.594 300.935 145.34 303.915 117.115 298.108C88.891 292.301 62.9649 277.967 42.6163 256.919C22.2677 235.871 8.40995 209.054 2.79578 179.86C-2.81839 150.666 0.063159 120.406 11.0758 92.9054C22.0883 65.405 40.7377 41.9013 64.6652 25.3641Z" fill="url(#paint0_linear_601_138)"/>
<path d="M231.862 164.305C231.535 155.109 229.571 149.796 225.726 147.645C221.021 144.987 213.779 146.295 204.207 151.525C197.877 155.027 192.02 159.366 186.78 164.433C159.482 158.611 131.318 158.611 104.02 164.433C95.8383 155.996 75.138 141.824 64.9924 147.56C58.9378 150.977 57.3007 163.546 60.1644 184.932L60.452 186.746C60.5819 187.767 61.0687 188.705 61.8223 189.381C62.5759 190.057 63.5441 190.423 64.543 190.414H69.2871L68.7957 186.409C65.6048 165.318 67.856 156.081 69.0015 155.111C69.488 154.881 70.0217 154.778 70.5556 154.814C77.2647 154.814 92.4415 163.841 99.5597 172.024C100.053 172.618 100.699 173.059 101.421 173.297C102.144 173.535 102.914 173.564 103.651 173.375C131.209 167.133 159.753 167.133 187.311 173.375C188.044 173.568 188.814 173.549 189.537 173.318C190.259 173.087 190.904 172.654 191.402 172.068C201.302 160.721 218.566 153.339 221.839 155.195C222.984 156.165 225.195 165.319 222.126 186.114L221.717 190.542H226.339C227.338 190.551 228.306 190.182 229.06 189.506C229.813 188.83 230.3 187.893 230.43 186.872V186.155C231.515 178.928 231.995 171.617 231.862 164.305V164.305Z" fill="white"/>
<path d="M187.844 202.312C191.007 202.312 193.571 199.669 193.571 196.407C193.571 193.146 191.007 190.502 187.844 190.502C184.681 190.502 182.116 193.146 182.116 196.407C182.116 199.669 184.681 202.312 187.844 202.312Z" fill="white"/>
<path d="M102.914 202.312C106.077 202.312 108.641 199.669 108.641 196.407C108.641 193.146 106.077 190.502 102.914 190.502C99.751 190.502 97.1868 193.146 97.1868 196.407C97.1868 199.669 99.751 202.312 102.914 202.312Z" fill="white"/>
<path d="M159.084 218.255C157.667 218.938 156.099 219.214 154.543 219.057C153.068 218.928 151.654 218.39 150.453 217.497C149.266 216.602 148.297 215.431 147.628 214.081C152.087 211.676 154.665 206.15 153.928 204.547C153.192 202.944 148.528 201.805 145.746 201.805C142.964 201.805 138.22 202.691 137.361 204.547C136.502 206.403 139.243 211.717 143.743 214.122C143.073 215.473 142.088 216.634 140.878 217.497C139.685 218.406 138.267 218.945 136.787 219.057C135.188 219.196 133.583 218.906 132.125 218.214C131.825 218.062 131.478 218.034 131.158 218.136C130.839 218.238 130.57 218.462 130.405 218.762C130.225 219.039 130.154 219.378 130.208 219.707C130.261 220.037 130.435 220.332 130.693 220.533V220.533C132.954 222.209 135.734 222.968 138.503 222.665C141.273 222.362 143.837 221.016 145.706 218.888C146.439 219.731 147.278 220.468 148.201 221.081C149.935 222.149 151.909 222.732 153.928 222.77H154.583C156.789 222.719 158.923 221.951 160.68 220.577C160.815 220.483 160.93 220.362 161.019 220.222C161.109 220.082 161.173 219.926 161.203 219.761C161.234 219.596 161.231 219.427 161.197 219.263C161.164 219.098 161.098 218.943 161.005 218.805C160.926 218.628 160.811 218.47 160.666 218.344C160.521 218.217 160.351 218.124 160.169 218.072C159.986 218.02 159.792 218.009 159.605 218.041C159.418 218.073 159.241 218.146 159.084 218.255V218.255Z" fill="white"/>
<defs>
<linearGradient id="paint0_linear_601_138" x1="145.5" y1="301" x2="145.5" y2="0" gradientUnits="userSpaceOnUse">
<stop stop-color="#DF782E"/>
<stop offset="0.05" stop-color="#E07A2E"/>
<stop offset="0.3" stop-color="#E17B2F"/>
<stop offset="0.68" stop-color="#F09637"/>
</linearGradient>
</defs>
</svg>
